<svg width="449" height="321" viewBox="0 0 449 321" fill="none" xmlns="http://www.w3.org/2000/svg">
<rect x="14" y="18" width="425" height="203" rx="19" fill="white"/>
<rect x="25" y="256" width="399" height="57" rx="19" fill="white"/>
<path d="M433.341 0H15.6401C11.4936 0.00487149 7.5183 1.65485 4.58626 4.58798C1.65423 7.52111 0.00486967 11.4979 0 15.646L0 234.542H179.291L188.859 224.971C189.04 224.786 189.257 224.64 189.495 224.54C189.734 224.44 189.99 224.389 190.248 224.389C190.507 224.389 190.763 224.44 191.001 224.54C191.24 224.64 191.456 224.786 191.637 224.971L201.205 234.542H448.963V15.646C448.958 11.5011 447.312 7.52707 444.383 4.59447C441.455 1.66186 437.485 0.00973838 433.341 0V0ZM82.4694 146.428C85.6366 149.7 89.4405 152.288 93.6463 154.032C97.8522 155.777 102.371 156.64 106.923 156.57V156.57L153.034 202.716H106.923C96.3044 202.883 85.7642 200.869 75.9536 196.801C66.1429 192.733 57.27 186.696 49.8828 179.063C42.2564 171.671 36.2241 162.794 32.1577 152.98C28.0913 143.167 26.0769 132.624 26.2386 122.002C26.0728 111.308 28.1111 100.694 32.2266 90.8227C36.342 80.9514 42.4463 72.0342 50.1588 64.627C65.5406 49.5317 86.259 41.1235 107.806 41.2317H115.166L161.314 87.3781H106.923C97.7534 87.383 88.9604 91.0279 82.4746 97.5126C75.9889 103.997 72.3407 112.792 72.3309 121.965C72.2628 126.519 73.1271 131.038 74.8707 135.245C76.6143 139.453 79.2003 143.258 82.4694 146.428V146.428ZM277.511 87.3781H242.882V204.318L196.881 158.3V87.3781H171.121L124.882 41.2317H249.451L295.58 87.3781H277.511ZM411.832 87.3781H377.203V204.318L331.074 158.3V87.3781H305.313L259.147 41.2317H383.735L429.845 87.3781H411.832Z" fill="url(#paint0_linear_1103_5)"/>
<path d="M110.401 269.295C108.233 268.313 105.857 267.883 103.483 268.043H101.459C101.3 268.041 101.142 268.07 100.995 268.129C100.848 268.188 100.714 268.276 100.601 268.387C100.488 268.498 100.398 268.631 100.337 268.777C100.276 268.924 100.244 269.081 100.244 269.239V277.946C100.244 278.268 100.372 278.577 100.6 278.805C100.828 279.033 101.136 279.161 101.459 279.161H103.519C109.653 279.161 112.719 277.283 112.719 273.528C112.771 272.676 112.581 271.826 112.171 271.077C111.761 270.328 111.147 269.71 110.401 269.295V269.295Z" fill="url(#paint1_linear_1103_5)"/>
<path d="M231.216 297.273H235.871C242.373 297.273 247.083 295.966 250.003 293.353C251.506 291.898 252.675 290.134 253.428 288.182C254.181 286.231 254.5 284.138 254.363 282.051C254.46 280.051 254.072 278.058 253.232 276.241C252.393 274.424 251.127 272.836 249.543 271.614C246.323 269.129 241.575 267.933 235.338 267.933H231.216C230.897 267.937 230.593 268.068 230.369 268.295C230.145 268.522 230.02 268.828 230.02 269.147V296.114C230.03 296.425 230.16 296.72 230.383 296.936C230.606 297.153 230.905 297.273 231.216 297.273V297.273Z" fill="url(#paint2_linear_1103_5)"/>
<path d="M191.637 253.833C191.266 254.196 190.767 254.399 190.248 254.399C189.729 254.399 189.23 254.196 188.859 253.833L179.18 244.151H0V305.354C0.00486967 309.502 1.65423 313.479 4.58626 316.412C7.5183 319.345 11.4936 320.995 15.6401 321H433.323C437.473 321 441.453 319.352 444.389 316.419C447.325 313.485 448.977 309.505 448.982 305.354V244.151H201.316L191.637 253.833ZM85.2478 266.368C85.2478 266.69 85.1199 266.999 84.8921 267.227C84.6644 267.455 84.3555 267.583 84.0334 267.583H71.3925C71.2339 267.58 71.0764 267.61 70.9292 267.669C70.7819 267.728 70.6479 267.815 70.5349 267.927C70.4219 268.038 70.3321 268.171 70.2709 268.317C70.2096 268.464 70.1781 268.621 70.1781 268.779V306.035C70.1781 306.357 70.0502 306.666 69.8224 306.894C69.5947 307.122 69.2858 307.25 68.9637 307.25H60.886C60.5654 307.245 60.2593 307.116 60.0326 306.889C59.8058 306.662 59.6764 306.356 59.6716 306.035V268.742C59.6716 268.425 59.5456 268.121 59.3213 267.896C59.097 267.672 58.7928 267.546 58.4756 267.546H46.4235C46.1029 267.541 45.7968 267.412 45.5701 267.185C45.3433 266.958 45.2139 266.652 45.2091 266.331V259.079C45.2139 258.758 45.3433 258.452 45.5701 258.225C45.7968 257.998 46.1029 257.869 46.4235 257.864H84.0334C84.3555 257.864 84.6644 257.992 84.8921 258.22C85.1199 258.448 85.2478 258.757 85.2478 259.079V266.368ZM118.626 285.309C115.203 287.861 110.168 289.144 103.519 289.156H101.458C101.3 289.153 101.142 289.183 100.995 289.242C100.848 289.301 100.714 289.388 100.601 289.5C100.488 289.611 100.398 289.744 100.337 289.89C100.275 290.037 100.244 290.194 100.244 290.352V305.98C100.244 306.302 100.116 306.611 99.8882 306.839C99.6605 307.067 99.3516 307.195 99.0295 307.195H91.0255C90.7049 307.19 90.3987 307.06 90.172 306.834C89.9453 306.607 89.8158 306.301 89.811 305.98V259.116C89.8158 258.795 89.9453 258.489 90.172 258.262C90.3987 258.035 90.7049 257.905 91.0255 257.901H103.519C110.573 257.901 115.706 259.312 118.92 262.134C120.567 263.645 121.857 265.505 122.694 267.579C123.531 269.652 123.895 271.886 123.759 274.117C123.877 276.26 123.472 278.399 122.577 280.349C121.683 282.299 120.326 284.001 118.626 285.309ZM161.59 305.98C161.59 306.302 161.462 306.611 161.234 306.839C161.007 307.067 160.698 307.195 160.376 307.195H128.93C128.609 307.19 128.303 307.06 128.076 306.834C127.85 306.607 127.72 306.301 127.715 305.98V259.116C127.72 258.795 127.85 258.489 128.076 258.262C128.303 258.035 128.609 257.905 128.93 257.901H159.014C159.335 257.905 159.641 258.035 159.867 258.262C160.094 258.489 160.224 258.795 160.228 259.116V266.294C160.224 266.615 160.094 266.921 159.867 267.148C159.641 267.375 159.335 267.504 159.014 267.509H139.51C139.191 267.509 138.885 267.635 138.658 267.858C138.43 268.082 138.3 268.387 138.295 268.706V275.351C138.3 275.671 138.43 275.978 138.656 276.204C138.883 276.431 139.189 276.561 139.51 276.565H153.917C154.234 276.565 154.539 276.692 154.763 276.916C154.987 277.14 155.113 277.445 155.113 277.762V284.941C155.116 285.099 155.086 285.257 155.027 285.404C154.968 285.551 154.881 285.686 154.769 285.799C154.658 285.912 154.525 286.001 154.379 286.063C154.233 286.124 154.076 286.156 153.917 286.156H139.51C139.188 286.156 138.879 286.284 138.651 286.511C138.423 286.739 138.295 287.048 138.295 287.37V296.445C138.3 296.766 138.43 297.072 138.656 297.299C138.883 297.526 139.189 297.655 139.51 297.66H160.376C160.534 297.657 160.692 297.687 160.839 297.746C160.986 297.805 161.12 297.892 161.233 298.004C161.346 298.115 161.436 298.248 161.497 298.394C161.558 298.541 161.59 298.698 161.59 298.856V305.98ZM371.204 259.06C371.204 258.741 371.33 258.435 371.553 258.208C371.777 257.98 372.081 257.85 372.4 257.846H402.576C402.895 257.85 403.2 257.98 403.423 258.208C403.647 258.435 403.773 258.741 403.772 259.06V266.166C403.772 266.323 403.742 266.478 403.681 266.623C403.621 266.769 403.533 266.9 403.422 267.012C403.311 267.123 403.179 267.211 403.034 267.271C402.889 267.331 402.734 267.362 402.576 267.362H382.98C382.661 267.367 382.357 267.497 382.133 267.724C381.91 267.952 381.784 268.258 381.784 268.577V305.98C381.78 306.301 381.65 306.607 381.423 306.834C381.197 307.06 380.891 307.19 380.57 307.195H372.4C372.081 307.19 371.777 307.06 371.553 306.832C371.33 306.605 371.204 306.299 371.204 305.98V259.06ZM322.941 259.06C322.945 258.74 323.075 258.433 323.302 258.207C323.528 257.98 323.835 257.85 324.155 257.846H332.251C332.57 257.85 332.874 257.98 333.098 258.208C333.322 258.435 333.447 258.741 333.447 259.06V275.295C333.452 275.616 333.581 275.922 333.808 276.149C334.035 276.376 334.341 276.505 334.662 276.51H353.172C353.493 276.505 353.799 276.376 354.026 276.149C354.252 275.922 354.382 275.616 354.387 275.295V259.06C354.387 258.741 354.512 258.435 354.736 258.208C354.959 257.98 355.264 257.85 355.583 257.846H363.679C363.999 257.85 364.305 257.98 364.532 258.207C364.759 258.433 364.888 258.74 364.893 259.06V305.98C364.888 306.301 364.759 306.607 364.532 306.834C364.305 307.06 363.999 307.19 363.679 307.195H355.583C355.264 307.19 354.959 307.06 354.736 306.832C354.512 306.605 354.387 306.299 354.387 305.98V287.389C354.382 287.068 354.252 286.762 354.026 286.535C353.799 286.308 353.493 286.179 353.172 286.174H334.662C334.341 286.179 334.035 286.308 333.808 286.535C333.581 286.762 333.452 287.068 333.447 287.389V305.98C333.447 306.299 333.322 306.605 333.098 306.832C332.874 307.06 332.57 307.19 332.251 307.195H324.155C323.835 307.19 323.528 307.06 323.302 306.834C323.075 306.607 322.945 306.301 322.941 305.98V259.06ZM270.666 259.06C270.666 258.741 270.791 258.435 271.015 258.208C271.239 257.98 271.543 257.85 271.862 257.846H280.032C280.352 257.85 280.658 257.98 280.885 258.207C281.112 258.433 281.241 258.74 281.246 259.06V286.303C281.228 286.556 281.29 286.808 281.425 287.023C281.56 287.239 281.759 287.405 281.995 287.5C282.23 287.594 282.49 287.611 282.736 287.548C282.981 287.485 283.201 287.345 283.362 287.149L307.669 258.361C307.78 258.224 307.92 258.113 308.079 258.037C308.238 257.961 308.412 257.92 308.589 257.919H315.728C316.048 257.924 316.355 258.053 316.581 258.28C316.808 258.507 316.938 258.813 316.942 259.134V306.054C316.938 306.374 316.808 306.68 316.581 306.907C316.355 307.134 316.048 307.264 315.728 307.268H307.558C307.239 307.264 306.935 307.133 306.711 306.906C306.488 306.679 306.362 306.373 306.362 306.054V280.118C306.358 279.872 306.279 279.633 306.136 279.432C305.993 279.232 305.793 279.079 305.561 278.995C305.33 278.912 305.078 278.9 304.84 278.963C304.602 279.025 304.388 279.158 304.228 279.345L281.301 306.808C281.186 306.946 281.043 307.056 280.881 307.133C280.719 307.209 280.542 307.249 280.363 307.25H271.862C271.543 307.245 271.239 307.115 271.015 306.888C270.791 306.66 270.666 306.354 270.666 306.035V259.06ZM219.514 259.06C219.514 258.741 219.639 258.435 219.863 258.208C220.087 257.98 220.391 257.85 220.71 257.846H238.834C242.841 257.761 246.825 258.474 250.555 259.944C253.707 261.198 256.573 263.076 258.982 265.466C261.181 267.71 262.903 270.378 264.042 273.307C265.139 276.163 265.706 279.194 265.716 282.253C265.857 285.626 265.273 288.99 264.004 292.118C262.734 295.246 260.808 298.065 258.356 300.384C253.535 304.888 246.684 307.146 237.803 307.158H220.802C220.483 307.153 220.179 307.023 219.955 306.796C219.731 306.568 219.606 306.262 219.606 305.943L219.514 259.06ZM205.235 257.846H212.374C212.693 257.85 212.997 257.98 213.221 258.208C213.445 258.435 213.57 258.741 213.57 259.06V305.98C213.57 306.299 213.445 306.605 213.221 306.832C212.997 307.06 212.693 307.19 212.374 307.195H204.241C203.921 307.19 203.615 307.06 203.388 306.834C203.161 306.607 203.032 306.301 203.027 305.98V280.118C203.023 279.872 202.944 279.633 202.801 279.432C202.658 279.232 202.458 279.079 202.226 278.995C201.995 278.912 201.743 278.9 201.505 278.963C201.267 279.025 201.053 279.158 200.893 279.345L177.929 306.808C177.818 306.945 177.678 307.056 177.519 307.132C177.36 307.209 177.186 307.249 177.009 307.25H168.508C168.188 307.245 167.882 307.116 167.655 306.889C167.428 306.662 167.299 306.356 167.294 306.035V259.116C167.299 258.795 167.428 258.489 167.655 258.262C167.882 258.035 168.188 257.905 168.508 257.901H176.641C176.96 257.906 177.264 258.036 177.488 258.263C177.712 258.49 177.837 258.797 177.837 259.116V286.358C177.841 286.604 177.92 286.843 178.063 287.044C178.206 287.244 178.407 287.397 178.638 287.481C178.87 287.564 179.121 287.576 179.359 287.513C179.597 287.451 179.811 287.318 179.972 287.131L204.241 258.343C204.359 258.194 204.511 258.077 204.684 258C204.857 257.923 205.046 257.889 205.235 257.901V257.846Z" fill="url(#paint3_linear_1103_5)"/>
<defs>
<linearGradient id="paint0_linear_1103_5" x1="0" y1="117.271" x2="449" y2="117.271" gradientUnits="userSpaceOnUse">
<stop offset="0.01" stop-color="#E7372C"/>
<stop offset="1" stop-color="#BE1B22"/>
</linearGradient>
<linearGradient id="paint1_linear_1103_5" x1="780.356" y1="1925.64" x2="864.496" y2="1925.64" gradientUnits="userSpaceOnUse">
<stop offset="0.01" stop-color="#E7372C"/>
<stop offset="1" stop-color="#BE1B22"/>
</linearGradient>
<linearGradient id="paint2_linear_1103_5" x1="3277.03" y1="4772.33" x2="3599.5" y2="4772.33" gradientUnits="userSpaceOnUse">
<stop offset="0.01" stop-color="#E7372C"/>
<stop offset="1" stop-color="#BE1B22"/>
</linearGradient>
<linearGradient id="paint3_linear_1103_5" x1="0" y1="12042.1" x2="109560" y2="12042.1" gradientUnits="userSpaceOnUse">
<stop offset="0.01" stop-color="#E7372C"/>
<stop offset="1" stop-color="#BE1B22"/>
</linearGradient>
</defs>
</svg>
