<svg width="290" height="152" viewBox="0 0 290 152" fill="none" xmlns="http://www.w3.org/2000/svg">
<rect y="11.6074" width="290" height="130.907" rx="19" fill="white"/>
<path d="M279.886 0H10.1016C7.42348 0.00314143 4.85591 1.06714 2.96217 2.9586C1.06843 4.85006 0.00314522 7.41453 0 10.0895L0 151.247H115.8L121.98 145.074C122.097 144.956 122.237 144.861 122.391 144.797C122.545 144.733 122.71 144.699 122.877 144.699C123.044 144.699 123.21 144.733 123.364 144.797C123.518 144.861 123.657 144.956 123.775 145.074L129.955 151.247H289.976V10.0895C289.973 7.41658 288.909 4.85391 287.018 2.96279C285.127 1.07167 282.563 0.00627989 279.886 0V0ZM53.2653 94.4254C55.3109 96.5355 57.7678 98.2044 60.4843 99.3293C63.2007 100.454 66.1192 101.011 69.0595 100.966V100.966L98.8415 130.724H69.0595C62.201 130.831 55.3934 129.533 49.0569 126.909C42.7204 124.286 36.9895 120.393 32.2183 115.471C27.2925 110.704 23.3964 104.979 20.77 98.6509C18.1436 92.3224 16.8425 85.5238 16.947 78.674C16.8399 71.7778 18.1564 64.9335 20.8145 58.5679C23.4726 52.2023 27.4152 46.4519 32.3965 41.6754C42.3314 31.941 55.7129 26.5189 69.63 26.5887H74.3837L104.189 56.3466H69.0595C63.1369 56.3498 57.4577 58.7002 53.2687 62.882C49.0797 67.0637 46.7234 72.7349 46.7171 78.6503C46.6731 81.5869 47.2313 84.5014 48.3575 87.2144C49.4836 89.9274 51.1538 92.3814 53.2653 94.4254V94.4254ZM179.239 56.3466H156.872V131.756L127.162 102.082V56.3466H110.524L80.6586 26.5887H161.115L190.909 56.3466H179.239ZM265.994 56.3466H243.628V131.756L213.834 102.082V56.3466H197.196L167.378 26.5887H247.846L277.628 56.3466H265.994Z" fill="url(#paint0_linear_992_7)"/>
<defs>
<linearGradient id="paint0_linear_992_7" x1="0" y1="75.6234" x2="290" y2="75.6234" gradientUnits="userSpaceOnUse">
<stop offset="0.01" stop-color="#E7372C"/>
<stop offset="1" stop-color="#BE1B22"/>
</linearGradient>
</defs>
</svg>
