<svg width="449" height="235" viewBox="0 0 449 235" fill="none" xmlns="http://www.w3.org/2000/svg">
<rect x="14" y="18" width="425" height="203" rx="19" fill="white"/>
<rect x="160" y="216.54" width="65" height="18" fill="white"/>
<path d="M433.341 0H15.6401C11.4936 0.00487149 7.5183 1.65485 4.58626 4.58798C1.65423 7.52111 0.00486967 11.4979 0 15.646L0 234.542H179.291L188.859 224.971C189.04 224.786 189.257 224.64 189.495 224.54C189.734 224.44 189.99 224.389 190.248 224.389C190.507 224.389 190.763 224.44 191.001 224.54C191.24 224.64 191.456 224.786 191.637 224.971L201.205 234.542H448.963V15.646C448.958 11.5011 447.312 7.52707 444.383 4.59447C441.455 1.66186 437.485 0.00973838 433.341 0V0ZM82.4694 146.428C85.6366 149.7 89.4405 152.288 93.6463 154.032C97.8522 155.777 102.371 156.64 106.923 156.57V156.57L153.034 202.716H106.923C96.3044 202.883 85.7642 200.869 75.9536 196.801C66.1429 192.733 57.27 186.696 49.8828 179.063C42.2564 171.671 36.2241 162.794 32.1577 152.98C28.0913 143.167 26.0769 132.624 26.2386 122.002C26.0728 111.308 28.1111 100.694 32.2266 90.8227C36.342 80.9514 42.4463 72.0342 50.1588 64.627C65.5406 49.5317 86.259 41.1235 107.806 41.2317H115.166L161.314 87.3781H106.923C97.7534 87.383 88.9604 91.0279 82.4746 97.5126C75.9889 103.997 72.3407 112.792 72.3309 121.965C72.2628 126.519 73.1271 131.038 74.8707 135.245C76.6143 139.453 79.2003 143.258 82.4694 146.428V146.428ZM277.511 87.3781H242.882V204.318L196.881 158.3V87.3781H171.121L124.882 41.2317H249.451L295.58 87.3781H277.511ZM411.832 87.3781H377.203V204.318L331.074 158.3V87.3781H305.313L259.147 41.2317H383.735L429.845 87.3781H411.832Z" fill="url(#paint0_linear_1103_8)"/>
<defs>
<linearGradient id="paint0_linear_1103_8" x1="0" y1="117.271" x2="449" y2="117.271" gradientUnits="userSpaceOnUse">
<stop offset="0.01" stop-color="#E7372C"/>
<stop offset="1" stop-color="#BE1B22"/>
</linearGradient>
</defs>
</svg>
