<svg width="449" height="77" viewBox="0 0 449 77" fill="none" xmlns="http://www.w3.org/2000/svg">
<rect width="45" height="11.347" transform="matrix(1 0 0 -1 166 11.5)" fill="white"/>
<rect x="25" y="12" width="399" height="57" rx="19" fill="white"/>
<path d="M110.401 25.2947C108.233 24.3131 105.857 23.883 103.483 24.043H101.459C101.3 24.0406 101.142 24.0697 100.995 24.1287C100.848 24.1878 100.714 24.2755 100.601 24.3869C100.488 24.4982 100.398 24.6309 100.337 24.7773C100.276 24.9237 100.244 25.0808 100.244 25.2395V33.946C100.244 34.2682 100.372 34.5772 100.6 34.805C100.828 35.0329 101.136 35.1609 101.459 35.1609H103.519C109.653 35.1609 112.719 33.2833 112.719 29.5283C112.771 28.6757 112.581 27.8258 112.171 27.0767C111.761 26.3275 111.147 25.7098 110.401 25.2947V25.2947Z" fill="url(#paint0_linear_1103_6)"/>
<path d="M231.216 53.2733H235.871C242.373 53.2733 247.083 51.9664 250.003 49.3526C251.506 47.8983 252.675 46.134 253.428 44.1823C254.181 42.2306 254.5 40.1383 254.363 38.0507C254.46 36.0513 254.072 34.0581 253.232 32.241C252.393 30.4238 251.127 28.8364 249.543 27.614C246.323 25.129 241.575 23.9326 235.338 23.9326H231.216C230.897 23.9374 230.593 24.0675 230.369 24.2948C230.145 24.5221 230.02 24.8284 230.02 25.1474V52.1137C230.03 52.4246 230.16 52.7195 230.383 52.936C230.606 53.1525 230.905 53.2735 231.216 53.2733V53.2733Z" fill="url(#paint1_linear_1103_6)"/>
<path d="M191.637 9.83278C191.266 10.1959 190.767 10.3993 190.248 10.3993C189.729 10.3993 189.23 10.1959 188.859 9.83278L179.18 0.150696H0V61.354C0.00486967 65.5021 1.65423 69.4789 4.58626 72.412C7.5183 75.3452 11.4936 76.9951 15.6401 77H433.323C437.473 77 441.453 75.3522 444.389 72.4185C447.325 69.4849 448.977 65.5053 448.982 61.354V0.150696H201.316L191.637 9.83278ZM85.2478 22.368C85.2478 22.6902 85.1199 22.9992 84.8921 23.227C84.6644 23.4549 84.3555 23.5828 84.0334 23.5828H71.3925C71.2339 23.5804 71.0764 23.6095 70.9292 23.6686C70.7819 23.7276 70.6479 23.8153 70.5349 23.9267C70.4219 24.038 70.3321 24.1708 70.2709 24.3171C70.2096 24.4635 70.1781 24.6206 70.1781 24.7793V62.0351C70.1781 62.3573 70.0502 62.6663 69.8224 62.8941C69.5947 63.122 69.2858 63.25 68.9637 63.25H60.886C60.5654 63.2452 60.2593 63.1157 60.0326 62.8889C59.8058 62.6621 59.6764 62.3558 59.6716 62.0351V24.7425C59.6716 24.4252 59.5456 24.1208 59.3213 23.8964C59.097 23.6721 58.7928 23.546 58.4756 23.546H46.4235C46.1029 23.5413 45.7968 23.4118 45.5701 23.1849C45.3433 22.9581 45.2139 22.6519 45.2091 22.3312V15.0788C45.2139 14.7581 45.3433 14.4518 45.5701 14.225C45.7968 13.9982 46.1029 13.8687 46.4235 13.8639H84.0334C84.3555 13.8639 84.6644 13.9919 84.8921 14.2198C85.1199 14.4476 85.2478 14.7566 85.2478 15.0788V22.368ZM118.626 41.3088C115.203 43.8612 110.168 45.1436 103.519 45.1559H101.458C101.3 45.1534 101.142 45.1826 100.995 45.2416C100.848 45.3006 100.714 45.3884 100.601 45.4997C100.488 45.6111 100.398 45.7438 100.337 45.8902C100.275 46.0365 100.244 46.1936 100.244 46.3523V61.9799C100.244 62.3021 100.116 62.6111 99.8882 62.8389C99.6605 63.0667 99.3516 63.1947 99.0295 63.1947H91.0255C90.7049 63.19 90.3987 63.0605 90.172 62.8337C89.9453 62.6068 89.8158 62.3006 89.811 61.9799V15.1156C89.8158 14.7949 89.9453 14.4886 90.172 14.2618C90.3987 14.035 90.7049 13.9055 91.0255 13.9007H103.519C110.573 13.9007 115.706 15.312 118.92 18.1344C120.567 19.6455 121.857 21.5055 122.694 23.5786C123.531 25.6517 123.895 27.8856 123.759 30.1173C123.877 32.2597 123.472 34.3986 122.577 36.3487C121.683 38.2988 120.326 40.0013 118.626 41.3088ZM161.59 61.9799C161.59 62.3021 161.462 62.6111 161.234 62.8389C161.007 63.0667 160.698 63.1947 160.376 63.1947H128.93C128.609 63.19 128.303 63.0605 128.076 62.8337C127.85 62.6068 127.72 62.3006 127.715 61.9799V15.1156C127.72 14.7949 127.85 14.4886 128.076 14.2618C128.303 14.035 128.609 13.9055 128.93 13.9007H159.014C159.335 13.9055 159.641 14.035 159.867 14.2618C160.094 14.4886 160.224 14.7949 160.228 15.1156V22.2943C160.224 22.6151 160.094 22.9213 159.867 23.1481C159.641 23.3749 159.335 23.5045 159.014 23.5092H139.51C139.191 23.5092 138.885 23.6346 138.658 23.8585C138.43 24.0824 138.3 24.3867 138.295 24.7057V31.3506C138.3 31.6713 138.43 31.9776 138.656 32.2044C138.883 32.4312 139.189 32.5607 139.51 32.5655H153.917C154.234 32.5655 154.539 32.6915 154.763 32.9159C154.987 33.1403 155.113 33.4446 155.113 33.7619V40.9407C155.116 41.0993 155.086 41.2569 155.027 41.4042C154.968 41.5515 154.881 41.6855 154.769 41.7986C154.658 41.9117 154.525 42.0014 154.379 42.0627C154.233 42.124 154.076 42.1555 153.917 42.1555H139.51C139.188 42.1555 138.879 42.2835 138.651 42.5113C138.423 42.7392 138.295 43.0482 138.295 43.3704V52.445C138.3 52.7658 138.43 53.072 138.656 53.2988C138.883 53.5256 139.189 53.6552 139.51 53.6599H160.376C160.534 53.6575 160.692 53.6866 160.839 53.7456C160.986 53.8047 161.12 53.8924 161.233 54.0038C161.346 54.1151 161.436 54.2478 161.497 54.3942C161.558 54.5406 161.59 54.6977 161.59 54.8564V61.9799ZM371.204 15.0604C371.204 14.7414 371.33 14.4351 371.553 14.2078C371.777 13.9805 372.081 13.8504 372.4 13.8455H402.576C402.895 13.8504 403.2 13.9805 403.423 14.2078C403.647 14.4351 403.773 14.7414 403.772 15.0604V22.1655C403.772 22.3226 403.742 22.4782 403.681 22.6233C403.621 22.7685 403.533 22.9004 403.422 23.0115C403.311 23.1226 403.179 23.2107 403.034 23.2709C402.889 23.331 402.734 23.3619 402.576 23.3619H382.98C382.661 23.3668 382.357 23.4969 382.133 23.7242C381.91 23.9515 381.784 24.2578 381.784 24.5768V61.9799C381.78 62.3006 381.65 62.6068 381.423 62.8337C381.197 63.0605 380.891 63.19 380.57 63.1947H372.4C372.081 63.1899 371.777 63.0598 371.553 62.8325C371.33 62.6052 371.204 62.2989 371.204 61.9799V15.0604ZM322.941 15.0604C322.945 14.7397 323.075 14.4334 323.302 14.2066C323.528 13.9798 323.835 13.8503 324.155 13.8455H332.251C332.57 13.8504 332.874 13.9805 333.098 14.2078C333.322 14.4351 333.447 14.7414 333.447 15.0604V31.2954C333.452 31.6161 333.581 31.9223 333.808 32.1492C334.035 32.376 334.341 32.5055 334.662 32.5102H353.172C353.493 32.5055 353.799 32.376 354.026 32.1492C354.252 31.9223 354.382 31.6161 354.387 31.2954V15.0604C354.387 14.7414 354.512 14.4351 354.736 14.2078C354.959 13.9805 355.264 13.8504 355.583 13.8455H363.679C363.999 13.8503 364.305 13.9798 364.532 14.2066C364.759 14.4334 364.888 14.7397 364.893 15.0604V61.9799C364.888 62.3006 364.759 62.6068 364.532 62.8337C364.305 63.0605 363.999 63.19 363.679 63.1947H355.583C355.264 63.1899 354.959 63.0598 354.736 62.8325C354.512 62.6052 354.387 62.2989 354.387 61.9799V43.3888C354.382 43.0681 354.252 42.7618 354.026 42.535C353.799 42.3082 353.493 42.1787 353.172 42.1739H334.662C334.341 42.1787 334.035 42.3082 333.808 42.535C333.581 42.7618 333.452 43.0681 333.447 43.3888V61.9799C333.447 62.2989 333.322 62.6052 333.098 62.8325C332.874 63.0598 332.57 63.1899 332.251 63.1947H324.155C323.835 63.19 323.528 63.0605 323.302 62.8337C323.075 62.6068 322.945 62.3006 322.941 61.9799V15.0604ZM270.666 15.0604C270.666 14.7414 270.791 14.4351 271.015 14.2078C271.239 13.9805 271.543 13.8504 271.862 13.8455H280.032C280.352 13.8503 280.658 13.9798 280.885 14.2066C281.112 14.4334 281.241 14.7397 281.246 15.0604V42.3028C281.228 42.5559 281.29 42.8083 281.425 43.0234C281.56 43.2386 281.759 43.4054 281.995 43.4996C282.23 43.5939 282.49 43.6108 282.736 43.5478C282.981 43.4849 283.201 43.3454 283.362 43.1495L307.669 14.3609C307.78 14.224 307.92 14.1133 308.079 14.0369C308.238 13.9606 308.412 13.9203 308.589 13.9191H315.728C316.048 13.9239 316.355 14.0534 316.581 14.2802C316.808 14.507 316.938 14.8133 316.942 15.134V62.0535C316.938 62.3742 316.808 62.6805 316.581 62.9073C316.355 63.1341 316.048 63.2636 315.728 63.2684H307.558C307.239 63.2635 306.935 63.1334 306.711 62.9061C306.488 62.6788 306.362 62.3725 306.362 62.0535V36.118C306.358 35.8717 306.279 35.6325 306.136 35.432C305.993 35.2316 305.793 35.0793 305.561 34.9954C305.33 34.9116 305.078 34.9001 304.84 34.9625C304.602 35.0249 304.388 35.1583 304.228 35.3449L281.301 62.8082C281.186 62.9456 281.043 63.0563 280.881 63.1326C280.719 63.2089 280.542 63.2489 280.363 63.25H271.862C271.543 63.2451 271.239 63.115 271.015 62.8877C270.791 62.6604 270.666 62.3541 270.666 62.0351V15.0604ZM219.514 15.0604C219.514 14.7414 219.639 14.4351 219.863 14.2078C220.087 13.9805 220.391 13.8504 220.71 13.8455H238.834C242.841 13.7608 246.825 14.4741 250.555 15.9439C253.707 17.1982 256.573 19.0764 258.982 21.466C261.181 23.7104 262.903 26.3781 264.042 29.3074C265.139 32.1629 265.706 35.1943 265.716 38.2532C265.857 41.6261 265.273 44.9901 264.004 48.1179C262.734 51.2457 260.808 54.0645 258.356 56.3841C253.535 60.8877 246.684 63.1456 237.803 63.1579H220.802C220.483 63.1531 220.179 63.023 219.955 62.7957C219.731 62.5683 219.606 62.2621 219.606 61.9431L219.514 15.0604ZM205.235 13.8455H212.374C212.693 13.8504 212.997 13.9805 213.221 14.2078C213.445 14.4351 213.57 14.7414 213.57 15.0604V61.9799C213.57 62.2989 213.445 62.6052 213.221 62.8325C212.997 63.0598 212.693 63.1899 212.374 63.1947H204.241C203.921 63.19 203.615 63.0605 203.388 62.8337C203.161 62.6068 203.032 62.3006 203.027 61.9799V36.118C203.023 35.8717 202.944 35.6325 202.801 35.432C202.658 35.2316 202.458 35.0793 202.226 34.9954C201.995 34.9116 201.743 34.9001 201.505 34.9625C201.267 35.0249 201.053 35.1583 200.893 35.3449L177.929 62.8082C177.818 62.9451 177.678 63.0558 177.519 63.1322C177.36 63.2085 177.186 63.2488 177.009 63.25H168.508C168.188 63.2452 167.882 63.1157 167.655 62.8889C167.428 62.6621 167.299 62.3558 167.294 62.0351V15.1156C167.299 14.7949 167.428 14.4886 167.655 14.2618C167.882 14.035 168.188 13.9055 168.508 13.9007H176.641C176.96 13.9056 177.264 14.0357 177.488 14.263C177.712 14.4903 177.837 14.7966 177.837 15.1156V42.358C177.841 42.6043 177.92 42.8435 178.063 43.044C178.206 43.2445 178.407 43.3967 178.638 43.4806C178.87 43.5644 179.121 43.5759 179.359 43.5135C179.597 43.4511 179.811 43.3177 179.972 43.1311L204.241 14.3425C204.359 14.1944 204.511 14.0769 204.684 14C204.857 13.9231 205.046 13.8891 205.235 13.9007V13.8455Z" fill="url(#paint2_linear_1103_6)"/>
<defs>
<linearGradient id="paint0_linear_1103_6" x1="780.356" y1="1681.64" x2="864.496" y2="1681.64" gradientUnits="userSpaceOnUse">
<stop offset="0.01" stop-color="#E7372C"/>
<stop offset="1" stop-color="#BE1B22"/>
</linearGradient>
<linearGradient id="paint1_linear_1103_6" x1="3277.03" y1="4528.33" x2="3599.5" y2="4528.33" gradientUnits="userSpaceOnUse">
<stop offset="0.01" stop-color="#E7372C"/>
<stop offset="1" stop-color="#BE1B22"/>
</linearGradient>
<linearGradient id="paint2_linear_1103_6" x1="0" y1="11798.1" x2="109560" y2="11798.1" gradientUnits="userSpaceOnUse">
<stop offset="0.01" stop-color="#E7372C"/>
<stop offset="1" stop-color="#BE1B22"/>
</linearGradient>
</defs>
</svg>
