<svg width="290" height="50" viewBox="0 0 290 50" fill="none" xmlns="http://www.w3.org/2000/svg">
<rect y="8.08398" width="290" height="36.757" rx="18.3785" fill="white"/>
<path d="M71.3056 16.6573C69.9056 16.0243 68.3705 15.747 66.8371 15.8501H65.5299C65.4274 15.8486 65.3257 15.8674 65.2306 15.9054C65.1355 15.9435 65.0489 16.0001 64.976 16.0719C64.903 16.1437 64.845 16.2293 64.8054 16.3237C64.7659 16.4181 64.7455 16.5194 64.7455 16.6217V22.2362C64.7455 22.444 64.8282 22.6432 64.9752 22.7901C65.1223 22.9371 65.3218 23.0196 65.5299 23.0196H66.8609C70.8223 23.0196 72.803 21.8089 72.803 19.3874C72.8367 18.8376 72.7139 18.2895 72.4489 17.8064C72.184 17.3233 71.7876 16.925 71.3056 16.6573Z" fill="url(#paint0_linear_992_6)"/>
<path d="M149.338 34.6995H152.344C156.544 34.6995 159.586 33.8567 161.472 32.1712C162.443 31.2334 163.197 30.0956 163.684 28.8371C164.17 27.5785 164.376 26.2292 164.288 24.8831C164.35 23.5937 164.1 22.3084 163.558 21.1366C163.015 19.9648 162.198 18.9411 161.174 18.1528C159.095 16.5504 156.029 15.7788 152 15.7788H149.338C149.132 15.7819 148.935 15.8658 148.791 16.0124C148.646 16.159 148.565 16.3565 148.565 16.5622V33.9517C148.571 34.1522 148.656 34.3424 148.8 34.482C148.944 34.6216 149.137 34.6996 149.338 34.6995Z" fill="url(#paint1_linear_992_6)"/>
<path d="M123.775 6.68646C123.535 6.92063 123.213 7.05176 122.877 7.05176C122.542 7.05176 122.22 6.92063 121.98 6.68646L115.729 0.442871H0V39.9104C0.00314522 42.5854 1.06843 45.1498 2.96217 47.0413C4.85591 48.9328 7.42348 49.9968 10.1016 49.9999H279.875C282.555 49.9999 285.125 48.9373 287.022 47.0455C288.918 45.1537 289.985 42.5874 289.988 39.9104V0.442871H130.026L123.775 6.68646ZM55.0598 14.7699C55.0598 14.9777 54.9772 15.1769 54.8301 15.3239C54.683 15.4708 54.4835 15.5533 54.2755 15.5533H46.111C46.0085 15.5517 45.9068 15.5705 45.8117 15.6086C45.7166 15.6467 45.63 15.7033 45.557 15.7751C45.4841 15.8469 45.4261 15.9324 45.3865 16.0268C45.347 16.1212 45.3266 16.2225 45.3266 16.3249V40.3496C45.3266 40.5574 45.244 40.7567 45.0969 40.9036C44.9498 41.0505 44.7503 41.133 44.5422 41.133H39.3251C39.118 41.13 38.9203 41.0465 38.7738 40.9002C38.6274 40.7539 38.5438 40.5564 38.5407 40.3496V16.3011C38.5407 16.0965 38.4593 15.9002 38.3144 15.7555C38.1696 15.6109 37.9731 15.5296 37.7682 15.5296H29.984C29.7769 15.5265 29.5792 15.443 29.4328 15.2967C29.2863 15.1505 29.2027 14.953 29.1997 14.7462V10.0694C29.2027 9.86258 29.2863 9.66509 29.4328 9.51883C29.5792 9.37257 29.7769 9.28904 29.984 9.28598H54.2755C54.4835 9.28598 54.683 9.36852 54.8301 9.51544C54.9772 9.66236 55.0598 9.86162 55.0598 10.0694V14.7699ZM76.6179 26.9841C74.4074 28.63 71.1551 29.457 66.8609 29.4649H65.5299C65.4274 29.4633 65.3257 29.4821 65.2306 29.5202C65.1355 29.5582 65.0489 29.6148 64.9759 29.6866C64.9029 29.7584 64.845 29.844 64.8054 29.9384C64.7659 30.0328 64.7455 30.1341 64.7455 30.2364V40.314C64.7455 40.5218 64.6629 40.7211 64.5158 40.868C64.3687 41.0149 64.1692 41.0974 63.9611 41.0974H58.7915C58.5844 41.0944 58.3867 41.0108 58.2403 40.8646C58.0938 40.7183 58.0102 40.5208 58.0071 40.314V10.0931C58.0102 9.88632 58.0938 9.68883 58.2403 9.54257C58.3867 9.39631 58.5844 9.31279 58.7915 9.30972H66.8609C71.4165 9.30972 74.7323 10.2198 76.808 12.0398C77.872 13.0143 78.7047 14.2137 79.2455 15.5506C79.7862 16.8874 80.0213 18.328 79.9336 19.7671C80.0099 21.1487 79.7478 22.528 79.1701 23.7855C78.5923 25.0431 77.7163 26.1409 76.6179 26.9841ZM104.368 40.314C104.368 40.5218 104.285 40.7211 104.138 40.868C103.991 41.0149 103.791 41.0974 103.583 41.0974H83.2731C83.066 41.0944 82.8683 41.0108 82.7218 40.8646C82.5754 40.7183 82.4918 40.5208 82.4887 40.314V10.0931C82.4918 9.88632 82.5754 9.68883 82.7218 9.54257C82.8683 9.39631 83.066 9.31279 83.2731 9.30972H102.704C102.911 9.31279 103.109 9.39631 103.255 9.54257C103.402 9.68883 103.485 9.88632 103.488 10.0931V14.7224C103.485 14.9292 103.402 15.1267 103.255 15.273C103.109 15.4192 102.911 15.5028 102.704 15.5058H90.1065C89.9006 15.5058 89.7028 15.5867 89.5561 15.7311C89.4093 15.8754 89.3253 16.0717 89.3222 16.2774V20.5624C89.3253 20.7692 89.4089 20.9667 89.5553 21.113C89.7017 21.2593 89.8995 21.3428 90.1065 21.3458H99.4119C99.6168 21.3458 99.8133 21.4271 99.9582 21.5718C100.103 21.7165 100.184 21.9128 100.184 22.1174V26.7467C100.186 26.849 100.167 26.9506 100.129 27.0456C100.091 27.1406 100.034 27.227 99.9624 27.2999C99.8905 27.3728 99.8048 27.4307 99.7103 27.4702C99.6158 27.5097 99.5144 27.5301 99.4119 27.5301H90.1065C89.8985 27.5301 89.699 27.6126 89.5519 27.7595C89.4048 27.9065 89.3222 28.1057 89.3222 28.3135V34.1654C89.3253 34.3722 89.4089 34.5697 89.5553 34.716C89.7017 34.8622 89.8995 34.9457 90.1065 34.9488H103.583C103.686 34.9472 103.787 34.966 103.883 35.0041C103.978 35.0422 104.064 35.0987 104.137 35.1705C104.21 35.2423 104.268 35.3279 104.308 35.4223C104.347 35.5167 104.368 35.618 104.368 35.7204V40.314ZM239.753 10.0575C239.753 9.8518 239.834 9.65431 239.979 9.50772C240.123 9.36114 240.32 9.27723 240.526 9.27411H260.016C260.222 9.27723 260.418 9.36114 260.563 9.50772C260.707 9.65431 260.788 9.8518 260.788 10.0575V14.6393C260.788 14.7407 260.768 14.841 260.73 14.9346C260.691 15.0282 260.634 15.1132 260.562 15.1849C260.49 15.2565 260.405 15.3134 260.312 15.3521C260.218 15.3909 260.117 15.4109 260.016 15.4109H247.359C247.153 15.414 246.957 15.4979 246.812 15.6445C246.668 15.7911 246.587 15.9886 246.587 16.1943V40.314C246.584 40.5208 246.5 40.7183 246.354 40.8646C246.207 41.0108 246.009 41.0944 245.802 41.0974H240.526C240.32 41.0943 240.123 41.0104 239.979 40.8638C239.834 40.7172 239.753 40.5197 239.753 40.314V10.0575ZM208.581 10.0575C208.584 9.85071 208.668 9.65322 208.814 9.50696C208.96 9.3607 209.158 9.27718 209.365 9.27411H214.594C214.8 9.27723 214.997 9.36114 215.141 9.50772C215.286 9.65431 215.367 9.8518 215.367 10.0575V20.5268C215.37 20.7336 215.453 20.9311 215.6 21.0774C215.746 21.2236 215.944 21.3072 216.151 21.3102H228.107C228.314 21.3072 228.512 21.2236 228.658 21.0774C228.804 20.9311 228.888 20.7336 228.891 20.5268V10.0575C228.891 9.8518 228.972 9.65431 229.117 9.50772C229.261 9.36114 229.458 9.27723 229.664 9.27411H234.893C235.1 9.27718 235.297 9.3607 235.444 9.50696C235.59 9.65322 235.674 9.85071 235.677 10.0575V40.314C235.674 40.5208 235.59 40.7183 235.444 40.8646C235.297 41.0108 235.1 41.0944 234.893 41.0974H229.664C229.458 41.0943 229.261 41.0104 229.117 40.8638C228.972 40.7172 228.891 40.5197 228.891 40.314V28.3254C228.888 28.1186 228.804 27.9211 228.658 27.7748C228.512 27.6285 228.314 27.545 228.107 27.542H216.151C215.944 27.545 215.746 27.6285 215.6 27.7748C215.453 27.9211 215.37 28.1186 215.367 28.3254V40.314C215.367 40.5197 215.286 40.7172 215.141 40.8638C214.997 41.0104 214.8 41.0943 214.594 41.0974H209.365C209.158 41.0944 208.96 41.0108 208.814 40.8646C208.668 40.7183 208.584 40.5208 208.581 40.314V10.0575ZM174.818 10.0575C174.818 9.8518 174.899 9.65431 175.043 9.50772C175.188 9.36114 175.384 9.27723 175.59 9.27411H180.867C181.074 9.27718 181.272 9.3607 181.418 9.50696C181.564 9.65322 181.648 9.85071 181.651 10.0575V27.625C181.639 27.7883 181.68 27.951 181.767 28.0898C181.854 28.2285 181.983 28.3361 182.135 28.3969C182.287 28.4576 182.454 28.4685 182.613 28.4279C182.772 28.3873 182.914 28.2974 183.018 28.1711L198.717 9.60647C198.789 9.51815 198.879 9.4468 198.982 9.39755C199.085 9.3483 199.197 9.32235 199.311 9.32159H203.922C204.129 9.32465 204.327 9.40817 204.473 9.55443C204.62 9.70069 204.703 9.89819 204.707 10.105V40.3615C204.703 40.5683 204.62 40.7658 204.473 40.9121C204.327 41.0583 204.129 41.1418 203.922 41.1449H198.646C198.44 41.1418 198.243 41.0579 198.099 40.9113C197.954 40.7647 197.873 40.5672 197.873 40.3615V23.6367C197.871 23.4779 197.82 23.3237 197.727 23.1944C197.635 23.0651 197.505 22.9669 197.356 22.9128C197.206 22.8588 197.044 22.8514 196.89 22.8916C196.736 22.9319 196.598 23.0179 196.495 23.1382L181.687 40.8482C181.613 40.9368 181.52 41.0082 181.415 41.0574C181.31 41.1066 181.196 41.1324 181.081 41.133H175.59C175.384 41.1299 175.188 41.046 175.043 40.8994C174.899 40.7528 174.818 40.5554 174.818 40.3496V10.0575ZM141.779 10.0575C141.779 9.8518 141.86 9.65431 142.005 9.50772C142.149 9.36114 142.346 9.27723 142.552 9.27411H154.258C156.846 9.21946 159.419 9.67943 161.828 10.6273C163.864 11.4361 165.715 12.6473 167.271 14.1883C168.692 15.6356 169.804 17.3558 170.539 19.2449C171.248 21.0862 171.614 23.0411 171.621 25.0137C171.712 27.1887 171.335 29.358 170.515 31.375C169.694 33.392 168.451 35.2097 166.867 36.7056C163.753 39.6097 159.328 41.0658 153.592 41.0737H142.611C142.405 41.0706 142.209 40.9867 142.064 40.8401C141.92 40.6935 141.839 40.496 141.839 40.2903L141.779 10.0575ZM132.557 9.27411H137.168C137.374 9.27723 137.571 9.36114 137.715 9.50772C137.86 9.65431 137.941 9.8518 137.941 10.0575V40.314C137.941 40.5197 137.86 40.7172 137.715 40.8638C137.571 41.0104 137.374 41.0943 137.168 41.0974H131.915C131.708 41.0944 131.511 41.0108 131.364 40.8646C131.218 40.7183 131.134 40.5208 131.131 40.314V23.6367C131.128 23.4779 131.078 23.3237 130.985 23.1944C130.893 23.0651 130.763 22.9669 130.614 22.9128C130.464 22.8588 130.302 22.8514 130.148 22.8916C129.994 22.9319 129.856 23.0179 129.752 23.1382L114.921 40.8482C114.849 40.9365 114.758 41.0078 114.656 41.0571C114.553 41.1063 114.441 41.1323 114.327 41.133H108.836C108.629 41.13 108.431 41.0465 108.285 40.9002C108.138 40.7539 108.055 40.5564 108.052 40.3496V10.0931C108.055 9.88632 108.138 9.68883 108.285 9.54257C108.431 9.39631 108.629 9.31279 108.836 9.30972H114.089C114.295 9.31284 114.491 9.39675 114.636 9.54333C114.78 9.68991 114.862 9.88741 114.861 10.0931V27.6607C114.864 27.8195 114.915 27.9737 115.007 28.103C115.1 28.2323 115.229 28.3305 115.379 28.3846C115.528 28.4386 115.691 28.446 115.845 28.4058C115.998 28.3655 116.136 28.2795 116.24 28.1592L131.915 9.59461C131.992 9.49911 132.09 9.42334 132.201 9.37375C132.313 9.32416 132.435 9.3022 132.557 9.30972V9.27411Z" fill="url(#paint2_linear_992_6)"/>
<defs>
<linearGradient id="paint0_linear_992_6" x1="504.016" y1="1084.77" x2="558.36" y2="1084.77" gradientUnits="userSpaceOnUse">
<stop offset="0.01" stop-color="#E7372C"/>
<stop offset="1" stop-color="#BE1B22"/>
</linearGradient>
<linearGradient id="paint1_linear_992_6" x1="2116.57" y1="2920.48" x2="2324.84" y2="2920.48" gradientUnits="userSpaceOnUse">
<stop offset="0.01" stop-color="#E7372C"/>
<stop offset="1" stop-color="#BE1B22"/>
</linearGradient>
<linearGradient id="paint2_linear_992_6" x1="0" y1="7608.44" x2="70762.9" y2="7608.44" gradientUnits="userSpaceOnUse">
<stop offset="0.01" stop-color="#E7372C"/>
<stop offset="1" stop-color="#BE1B22"/>
</linearGradient>
</defs>
</svg>
