<svg width="56" height="56" viewBox="0 0 56 56" fill="none" xmlns="http://www.w3.org/2000/svg">
<path d="M33.421 17.1929C34.8545 17.1971 36.228 17.7685 37.2416 18.7821C38.2552 19.7957 38.8265 21.1692 38.8308 22.6026V33.4211C38.8265 34.8545 38.2552 36.228 37.2416 37.2416C36.228 38.2552 34.8545 38.8266 33.421 38.8308H22.6026C21.1692 38.8266 19.7957 38.2552 18.7821 37.2416C17.7684 36.228 17.1971 34.8545 17.1928 33.4211V22.6026C17.1971 21.1692 17.7684 19.7957 18.7821 18.7821C19.7957 17.7685 21.1692 17.1971 22.6026 17.1929H33.421ZM33.421 15.0293H22.6026C18.4372 15.0293 15.0293 18.4372 15.0293 22.6026V33.4211C15.0293 37.5865 18.4372 40.9944 22.6026 40.9944H33.421C37.5865 40.9944 40.9944 37.5865 40.9944 33.4211V22.6026C40.9944 18.4372 37.5865 15.0293 33.421 15.0293Z" fill="white"/>
<path d="M35.0438 22.6026C34.7229 22.6026 34.4091 22.5074 34.1422 22.3291C33.8754 22.1508 33.6674 21.8973 33.5445 21.6008C33.4217 21.3042 33.3896 20.978 33.4522 20.6632C33.5148 20.3484 33.6694 20.0592 33.8963 19.8322C34.1233 19.6053 34.4124 19.4507 34.7272 19.3881C35.042 19.3255 35.3683 19.3576 35.6649 19.4805C35.9614 19.6033 36.2148 19.8113 36.3932 20.0782C36.5715 20.345 36.6667 20.6588 36.6667 20.9798C36.6671 21.193 36.6254 21.4042 36.5441 21.6013C36.4627 21.7984 36.3431 21.9775 36.1924 22.1283C36.0416 22.2791 35.8625 22.3986 35.6654 22.48C35.4683 22.5614 35.2571 22.603 35.0438 22.6026ZM28.0118 23.6841C28.8678 23.6841 29.7045 23.9379 30.4162 24.4134C31.1279 24.889 31.6825 25.5648 32.0101 26.3556C32.3377 27.1464 32.4234 28.0166 32.2564 28.8561C32.0894 29.6956 31.6772 30.4667 31.072 31.0719C30.4667 31.6772 29.6956 32.0893 28.8561 32.2563C28.0166 32.4233 27.1465 32.3376 26.3557 32.0101C25.5649 31.6825 24.889 31.1278 24.4135 30.4161C23.9379 29.7044 23.6841 28.8677 23.6841 28.0118C23.6853 26.8644 24.1417 25.7643 24.953 24.953C25.7644 24.1416 26.8644 23.6853 28.0118 23.6841ZM28.0118 21.5205C26.728 21.5205 25.4729 21.9012 24.4055 22.6145C23.338 23.3277 22.506 24.3415 22.0147 25.5277C21.5234 26.7138 21.3948 28.019 21.6453 29.2782C21.8957 30.5373 22.514 31.694 23.4218 32.6018C24.3296 33.5096 25.4862 34.1279 26.7454 34.3783C28.0046 34.6288 29.3098 34.5002 30.4959 34.0089C31.682 33.5176 32.6958 32.6856 33.4091 31.6181C34.1224 30.5506 34.5031 29.2956 34.5031 28.0118C34.5031 26.2902 33.8192 24.6391 32.6018 23.4218C31.3845 22.2044 29.7334 21.5205 28.0118 21.5205Z" fill="white"/>
<rect x="0.360647" y="0.360647" width="55.3023" height="55.3023" rx="3.7093" stroke="white" stroke-width="0.674419"/>
</svg>
