<svg width="57" height="56" viewBox="0 0 57 56" fill="none" xmlns="http://www.w3.org/2000/svg">
<path fill-rule="evenodd" clip-rule="evenodd" d="M37.3009 18.9219C36.1163 17.7366 34.7088 16.7974 33.1597 16.1583C31.6106 15.5191 29.9503 15.1927 28.2746 15.1978C21.2418 15.1978 15.5167 20.8943 15.5138 27.8973C15.5107 30.1272 16.0985 32.3182 17.2174 34.2471L15.4068 40.8257L22.1713 39.0597C24.0438 40.0741 26.1398 40.605 28.2694 40.6043H28.2746C35.3068 40.6043 41.0313 34.9072 41.0347 27.9048C41.039 26.2347 40.7111 24.5805 40.0701 23.0383C39.4291 21.4961 38.4878 20.0969 37.3009 18.9219ZM28.2746 38.4608H28.27C26.3716 38.4614 24.5077 37.9533 22.8721 36.9895L22.4848 36.7607L18.4707 37.8087L19.5422 33.9136L19.2899 33.5131C18.2284 31.8326 17.666 29.8851 17.6682 27.8973C17.6682 22.0779 22.4282 17.343 28.2786 17.343C31.085 17.338 33.7786 18.4479 35.7667 20.4287C37.7549 22.4095 38.8749 25.0989 38.8804 27.9053C38.8781 33.7254 34.1203 38.4608 28.2746 38.4608ZM34.0917 30.5556C33.7731 30.3966 32.204 29.6289 31.9134 29.5231C31.6228 29.4173 31.4082 29.3641 31.196 29.6821C30.9838 30.0002 30.3723 30.7118 30.1863 30.9263C30.0004 31.1409 29.8145 31.1643 29.4959 31.0053C29.1772 30.8462 28.1493 30.5116 26.9314 29.4304C25.9835 28.5889 25.3439 27.5501 25.158 27.2326C24.9721 26.9151 25.138 26.7429 25.2976 26.585C25.4412 26.4426 25.6162 26.2144 25.7758 26.029C25.9354 25.8437 25.9886 25.711 26.0945 25.4993C26.2003 25.2876 26.1477 25.1023 26.0682 24.9438C25.9886 24.7854 25.3508 23.2231 25.0854 22.5876C24.8262 21.9686 24.5637 22.0527 24.368 22.043C24.1821 22.0338 23.9676 22.0315 23.7565 22.0315C23.5951 22.0357 23.4364 22.0731 23.2901 22.1415C23.1438 22.2098 23.0132 22.3075 22.9064 22.4285C22.6141 22.7466 21.7904 23.5154 21.7904 25.076C21.7904 26.6365 22.9345 28.1467 23.0923 28.3584C23.2502 28.5701 25.3405 31.7753 28.5388 33.1499C29.1327 33.4042 29.7396 33.6273 30.3568 33.818C31.1205 34.0595 31.8155 34.0257 32.3647 33.9439C32.9774 33.8529 34.2525 33.1762 34.5173 32.4348C34.7822 31.6935 34.7828 31.0585 34.7033 30.9263C34.6237 30.7942 34.4109 30.7141 34.0917 30.5556Z" fill="white"/>
<rect x="0.569631" y="0.360647" width="55.3023" height="55.3023" rx="3.7093" stroke="white" stroke-width="0.674419"/>
</svg>
