<svg width="56" height="56" viewBox="0 0 56 56" fill="none" xmlns="http://www.w3.org/2000/svg">
<path d="M42.8256 13.8491L13.1512 26.0477L20.2049 30.3896M42.8256 13.8491L33.5827 39.4869C30.9072 38.4531 25.556 36.0134 25.556 34.5247M42.8256 13.8491C37.0691 20.1207 25.556 33.0361 25.556 34.5247M42.8256 13.8491C35.7718 18.4667 21.3724 28.2393 20.2049 30.3896M25.556 34.5247C24.1479 36.1788 21.398 40.0244 21.6643 42.1747L20.2049 30.3896" stroke="white" stroke-width="1.34884" stroke-linecap="round" stroke-linejoin="round"/>
<path d="M42.8256 13.8491L13.1512 26.0477L20.2049 30.3896M42.8256 13.8491L33.5827 39.4869C30.9072 38.4531 25.556 36.0134 25.556 34.5247M42.8256 13.8491C37.0691 20.1207 25.556 33.0361 25.556 34.5247M42.8256 13.8491C35.7718 18.4667 21.3724 28.2393 20.2049 30.3896M25.556 34.5247C24.1479 36.1788 21.398 40.0244 21.6643 42.1747L20.2049 30.3896" stroke="white" stroke-width="1.34884" stroke-linecap="round" stroke-linejoin="round"/>
<rect x="0.337209" y="0.360647" width="55.3023" height="55.3023" rx="3.7093" stroke="white" stroke-width="0.674419"/>
</svg>
